<svg xmlns="http://www.w3.org/2000/svg" viewBox="0 0 410 404" fill="none">
  <path d="M399.641 59.5246L215.278 388.545C210.823 396.487 200.012 396.466 195.582 388.507L10.4443 59.5313C5.63824 50.7901 12.8681 40.281 22.8845 41.8615L205.223 71.6788C206.398 71.8678 207.593 71.864 208.767 71.6672L387.28 41.8958C397.258 40.2647 404.533 50.6419 399.778 59.4087L399.641 59.5246Z" fill="url(#paint0_linear)"/>
  <path d="M292.965 1.57439L156.701 27.4126C155.563 27.626 154.481 28.0986 153.545 28.7947C152.61 29.4909 151.845 30.3933 151.308 31.4301L78.5162 171.305C77.6207 173.04 77.343 175.02 77.7207 176.928C78.0984 178.836 79.1084 180.57 80.6038 181.874L173.758 263.136C175.271 264.456 177.173 265.252 179.179 265.419C181.185 265.586 183.189 265.115 184.872 264.078L260.17 218.771C261.648 217.867 262.876 216.597 263.721 215.065C264.566 213.533 265. 0 265.289 211.904L304.956 6.50172C306.157 1.65147 299.334 -1.16786 292.965 1.57439Z" fill="url(#paint1_linear)"/>
  <defs>
    <linearGradient id="paint0_linear" x1="6.00017" y1="32.9999" x2="235" y2="344" gradientUnits="userSpaceOnUse">
      <stop stop-color="#41D1FF"/>
      <stop offset="1" stop-color="#BD34FE"/>
    </linearGradient>
    <linearGradient id="paint1_linear" x1="194" y1="8" x2="236" y2="292" gradientUnits="userSpaceOnUse">
      <stop stop-color="#FFEA83"/>
      <stop offset="0.08" stop-color="#FFDD35"/>
      <stop offset="1" stop-color="#FFA800"/>
    </linearGradient>
  </defs>
</svg>

